<svg width="202" height="66" viewBox="0 0 202 66" fill="none" xmlns="http://www.w3.org/2000/svg">
<path d="M1 35.3506H26L27.5 28.3506L29.5 42.8506L32.5 13.3428L37 57.8428L41.5 26.3506L43.5 40.8506L45.5 35.3506H70.5L72 28.3506L73.5 42.8506L76.5 0.638672L80.5 65.3613L86 26.3506L88 40.8506L89.5 35.3506H114.5L116 28.3506L118 42.8506L121.5 13.3428L125.5 61.8428L130 26.3506L131.5 40.8506L133.5 35.3506H159L160.5 23.8506L162.5 42.8506L166 0.638672L170 65.3613L174.5 24.8506L176.5 46.3506L179 35.3506H201" stroke="#222222" stroke-width="1.5" stroke-linecap="round"/>
</svg>
