<svg width="20" height="20" viewBox="0 0 20 20" fill="none" xmlns="http://www.w3.org/2000/svg">
<g clip-path="url(#clip0_1714_24605)">
<circle cx="10" cy="10" r="10" fill="#09101D"/>
<path d="M15.5747 6.28194C15.4534 6.18163 15.313 6.10542 15.1613 6.05766C15.0097 6.0099 14.8498 5.99153 14.6908 6.0036C14.5318 6.01566 14.3768 6.05793 14.2347 6.12798C14.0926 6.19803 13.9662 6.2945 13.8626 6.41187L8.63416 12.3331L5.82097 10.0593C5.59501 9.87681 5.30347 9.78856 5.01036 9.81396C4.71725 9.83936 4.44653 9.97633 4.25765 10.1948C4.16434 10.3029 4.09395 10.4277 4.05051 10.5622C4.00706 10.6967 3.99141 10.8381 4.00446 10.9784C4.0175 11.1187 4.05898 11.2552 4.12653 11.3799C4.19408 11.5047 4.28636 11.6154 4.39812 11.7056L8.16777 14.7525C8.28408 14.8464 8.41913 14.9161 8.56449 14.9572C8.70985 14.9983 8.8624 15.01 9.01263 14.9915C9.17187 14.9796 9.32712 14.9374 9.46947 14.8673C9.61182 14.7973 9.73847 14.7006 9.84215 14.5831L15.7089 7.93858C15.9181 7.70159 16.0215 7.39387 15.9963 7.0831C15.9711 6.77233 15.8195 6.48396 15.5747 6.28143" fill="white"/>
</g>
<defs>
<clipPath id="clip0_1714_24605">
<rect width="20" height="20" fill="white"/>
</clipPath>
</defs>
</svg>
