<svg id="Слой_1" data-name="Слой 1" xmlns="http://www.w3.org/2000/svg" viewBox="0 0 118 118"><path d="M58.5,1V11m0,106v-9" transform="translate(0.5)" fill="none" stroke="#09101d" stroke-linecap="round"/><path d="M58.5,1V11m0,106v-9" transform="translate(0.5)" fill="none" stroke="#09101d" stroke-linecap="round"/><path d="M.5,59h10m106,0h-9" transform="translate(0.5)" fill="none" stroke="#09101d" stroke-linecap="round"/><path d="M17.49,18l7.07,7.07m75,75-6.36-6.36" transform="translate(0.5)" fill="none" stroke="#09101d" stroke-linecap="round"/><path d="M99.51,18l-7.07,7.07M17.49,100l6.36-6.36" transform="translate(0.5)" fill="none" stroke="#09101d" stroke-linecap="round"/><path d="M45.17,3.48l1.16,4.35M74.68,113.6l-1.3-4.83" transform="translate(0.5)" fill="none" stroke="#6a727d" stroke-linecap="round"/><path d="M74.68,3.48,73.51,7.83M45.17,113.6l1.29-4.83" transform="translate(0.5)" fill="none" stroke="#6a727d" stroke-linecap="round"/><path d="M88.42,9.17l-2.25,3.9M31.42,107.9l2.5-4.33" transform="translate(0.5)" fill="none" stroke="#6a727d" stroke-linecap="round"/><path d="M109.29,30l-3.9,2.25M10.56,87l4.33-2.5" transform="translate(0.5)" fill="none" stroke="#6a727d" stroke-linecap="round"/><path d="M115,43.79,110.63,45M4.87,73.29,9.69,72" transform="translate(0.5)" fill="none" stroke="#6a727d" stroke-linecap="round"/><path d="M10.56,30l3.9,2.25M109.29,87,105,84.54" transform="translate(0.5)" fill="none" stroke="#6a727d" stroke-linecap="round"/><path d="M4.87,43.79,9.21,45M115,73.29,110.15,72" transform="translate(0.5)" fill="none" stroke="#6a727d" stroke-linecap="round"/><path d="M31.42,9.17l2.25,3.9M88.42,107.9l-2.5-4.33" transform="translate(0.5)" fill="none" stroke="#6a727d" stroke-linecap="round"/><circle cx="59" cy="59" r="58.5" fill="none" stroke="#6a727d" stroke-linecap="round"/></svg>