<svg width="25" height="25" viewBox="0 0 25 25" fill="none" xmlns="http://www.w3.org/2000/svg">
<path d="M12.5 0.5C5.88125 0.5 0.5 5.88125 0.5 12.5C0.5 19.1188 5.88125 24.5 12.5 24.5C19.1188 24.5 24.5 19.1188 24.5 12.5C24.5 5.88125 19.1188 0.5 12.5 0.5ZM12.5 22.5C6.9875 22.5 2.5 18.0125 2.5 12.5C2.5 6.9875 6.9875 2.5 12.5 2.5C18.0125 2.5 22.5 6.9875 22.5 12.5C22.5 18.0125 18.0125 22.5 12.5 22.5Z" fill="#6A727D"/>
<path d="M14.5314 5.86252C14.0314 5.62502 13.2876 5.49377 12.5001 5.50002C11.3689 5.48127 10.2814 5.87502 9.45012 6.61877C8.69387 7.29377 8.21262 8.18126 8.12512 9.05626C8.07512 9.53751 8.42512 9.96876 8.90637 10.0125C9.38762 10.0625 9.81887 9.71251 9.86262 9.23126C9.94387 8.40001 10.9251 7.21877 12.4751 7.25002H12.5001C13.0814 7.24377 13.5564 7.34377 13.7689 7.44377C15.1251 8.08127 15.1251 8.93751 15.1251 9.21876C15.1251 10.35 14.4439 10.8625 13.2376 11.6688C11.9439 12.5375 11.3126 13.6313 11.3126 15C11.3126 15.4813 11.7064 15.875 12.1876 15.875C12.6689 15.875 13.0626 15.4813 13.0626 15C13.0626 14.425 13.2001 13.8 14.2126 13.125C15.4001 12.3313 16.8751 11.3438 16.8751 9.22501C16.8751 7.77502 16.0439 6.58127 14.5314 5.86252Z" fill="#6A727D"/>
<path d="M12.125 19.5C12.8154 19.5 13.375 18.9404 13.375 18.25C13.375 17.5596 12.8154 17 12.125 17C11.4346 17 10.875 17.5596 10.875 18.25C10.875 18.9404 11.4346 19.5 12.125 19.5Z" fill="#6A727D"/>
</svg>
