<svg width="25" height="25" viewBox="0 0 25 25" fill="none" xmlns="http://www.w3.org/2000/svg">
<path fill-rule="evenodd" clip-rule="evenodd" d="M0 12.5C0 5.59709 5.59709 0 12.5 0C19.4029 0 25 5.59709 25 12.5C25 19.4029 19.4029 25 12.5 25C5.59709 25 0 19.4029 0 12.5ZM12.5 2C6.70166 2 2 6.70166 2 12.5C2 18.2983 6.70166 23 12.5 23C18.2983 23 23 18.2983 23 12.5C23 6.70166 18.2983 2 12.5 2ZM9.75 10.75C9.75 10.1977 10.1977 9.75 10.75 9.75H12.75C13.3023 9.75 13.75 10.1977 13.75 10.75V17.25H15.5C16.0523 17.25 16.5 17.6977 16.5 18.25C16.5 18.8023 16.0523 19.25 15.5 19.25H10C9.44771 19.25 9 18.8023 9 18.25C9 17.6977 9.44771 17.25 10 17.25H11.75V11.75H10.75C10.1977 11.75 9.75 11.3023 9.75 10.75Z" fill="#09101D"/>
<path d="M12.5 5.125C12.1786 5.125 11.8644 5.2203 11.5972 5.39886C11.33 5.57742 11.1217 5.83121 10.9987 6.12814C10.8757 6.42507 10.8435 6.7518 10.9062 7.06702C10.9689 7.38224 11.1237 7.67179 11.351 7.89905C11.5782 8.12631 11.8678 8.28107 12.183 8.34378C12.4982 8.40648 12.8249 8.3743 13.1219 8.2513C13.4188 8.12831 13.6726 7.92003 13.8511 7.6528C14.0297 7.38557 14.125 7.07139 14.125 6.75C14.125 6.31902 13.9538 5.9057 13.649 5.60095C13.3443 5.2962 12.931 5.125 12.5 5.125Z" fill="#09101D"/>
</svg>
