<svg width="320" height="320" viewBox="0 0 320 320" fill="none" xmlns="http://www.w3.org/2000/svg">
<circle cx="160" cy="5.51724" r="5.51724" fill="#09101D"/>
<circle opacity="0.75" cx="314.483" cy="160" r="5.51724" fill="#09101D"/>
<circle opacity="0.55" cx="160" cy="314.483" r="5.51724" fill="#09101D"/>
<circle opacity="0.35" cx="5.51724" cy="160" r="5.51724" fill="#09101D"/>
<circle opacity="0.85" cx="269.629" cy="51.159" r="5.51724" transform="rotate(45.2067 269.629 51.159)" fill="#09101D"/>
<circle opacity="0.65" cx="268.841" cy="269.629" r="5.51724" transform="rotate(45.2067 268.841 269.629)" fill="#09101D"/>
<circle opacity="0.45" cx="50.3708" cy="268.841" r="5.51724" transform="rotate(45.2067 50.3708 268.841)" fill="#09101D"/>
<circle opacity="0.25" cx="51.1589" cy="50.3709" r="5.51724" transform="rotate(45.2067 51.1589 50.3709)" fill="#09101D"/>
<circle opacity="0.9" cx="218.686" cy="17.0985" r="5.51724" transform="rotate(22.3268 218.686 17.0985)" fill="#09101D"/>
<circle opacity="0.7" cx="302.902" cy="218.686" r="5.51724" transform="rotate(22.3268 302.902 218.686)" fill="#09101D"/>
<circle opacity="0.5" cx="101.314" cy="302.902" r="5.51724" transform="rotate(22.3268 101.314 302.902)" fill="#09101D"/>
<circle opacity="0.3" cx="17.0985" cy="101.314" r="5.51724" transform="rotate(22.3268 17.0985 101.314)" fill="#09101D"/>
<circle opacity="0.8" cx="302.758" cy="100.966" r="5.51724" transform="rotate(67.5335 302.758 100.966)" fill="#09101D"/>
<circle opacity="0.6" cx="219.034" cy="302.758" r="5.51724" transform="rotate(67.5335 219.034 302.758)" fill="#09101D"/>
<circle opacity="0.4" cx="17.2423" cy="219.035" r="5.51724" transform="rotate(67.5335 17.2423 219.035)" fill="#09101D"/>
<circle opacity="0.2" cx="100.965" cy="17.242" r="5.51724" transform="rotate(67.5335 100.965 17.242)" fill="#09101D"/>
</svg>
