<svg width="25" height="24" viewBox="0 0 25 24" fill="none" xmlns="http://www.w3.org/2000/svg">
<g id="Button left icons">
<path id="Vector" d="M7.15419 20.6248C6.86639 20.6243 6.58368 20.5489 6.33388 20.4059C5.77138 20.0872 5.42169 19.4684 5.42169 18.7967V5.20296C5.42169 4.52937 5.77138 3.91249 6.33388 3.59374C6.58963 3.44676 6.88017 3.37118 7.17512 3.37489C7.47008 3.3786 7.75863 3.46147 8.0106 3.61484L19.6286 10.5692C19.8707 10.721 20.0703 10.9319 20.2087 11.1819C20.347 11.432 20.4196 11.7131 20.4196 11.9989C20.4196 12.2847 20.347 12.5658 20.2087 12.8159C20.0703 13.0659 19.8707 13.2768 19.6286 13.4286L8.00872 20.3848C7.75086 20.5407 7.45551 20.6237 7.15419 20.6248Z" fill="white"/>
</g>
</svg>
