<svg width="22" height="22" viewBox="0 0 22 22" fill="none" xmlns="http://www.w3.org/2000/svg">
<path d="M18.1797 15.2148H15.1797C14.9726 15.2148 14.8047 15.3827 14.8047 15.5898V18.5898C14.8047 18.797 14.9726 18.9648 15.1797 18.9648H18.1797C18.3868 18.9648 18.5547 18.797 18.5547 18.5898V15.5898C18.5547 15.3827 18.3868 15.2148 18.1797 15.2148Z" fill="#09101D"/>
<path d="M14.4297 12.2148H12.1797C11.9726 12.2148 11.8047 12.3827 11.8047 12.5898V14.8398C11.8047 15.047 11.9726 15.2148 12.1797 15.2148H14.4297C14.6368 15.2148 14.8047 15.047 14.8047 14.8398V12.5898C14.8047 12.3827 14.6368 12.2148 14.4297 12.2148Z" fill="#09101D"/>
<path d="M21.1797 18.9648H18.9297C18.7226 18.9648 18.5547 19.1327 18.5547 19.3398V21.5898C18.5547 21.797 18.7226 21.9648 18.9297 21.9648H21.1797C21.3868 21.9648 21.5547 21.797 21.5547 21.5898V19.3398C21.5547 19.1327 21.3868 18.9648 21.1797 18.9648Z" fill="#09101D"/>
<path d="M21.1797 12.2148H19.6797C19.4726 12.2148 19.3047 12.3827 19.3047 12.5898V14.0898C19.3047 14.297 19.4726 14.4648 19.6797 14.4648H21.1797C21.3868 14.4648 21.5547 14.297 21.5547 14.0898V12.5898C21.5547 12.3827 21.3868 12.2148 21.1797 12.2148Z" fill="#09101D"/>
<path d="M13.6797 19.7148H12.1797C11.9726 19.7148 11.8047 19.8827 11.8047 20.0898V21.5898C11.8047 21.797 11.9726 21.9648 12.1797 21.9648H13.6797C13.8868 21.9648 14.0547 21.797 14.0547 21.5898V20.0898C14.0547 19.8827 13.8868 19.7148 13.6797 19.7148Z" fill="#09101D"/>
<path d="M18.1797 3.96484H15.1797C14.9726 3.96484 14.8047 4.13274 14.8047 4.33984V7.33984C14.8047 7.54695 14.9726 7.71484 15.1797 7.71484H18.1797C18.3868 7.71484 18.5547 7.54695 18.5547 7.33984V4.33984C18.5547 4.13274 18.3868 3.96484 18.1797 3.96484Z" fill="#09101D"/>
<path fill-rule="evenodd" clip-rule="evenodd" d="M11.8047 2.46484C11.8047 1.63642 12.4763 0.964844 13.3047 0.964844H20.0547C20.8831 0.964844 21.5547 1.63642 21.5547 2.46484V9.21484C21.5547 10.0433 20.8831 10.7148 20.0547 10.7148H13.3047C12.4763 10.7148 11.8047 10.0433 11.8047 9.21484V2.46484ZM20.0547 2.46484H13.3047V9.21484H20.0547V2.46484Z" fill="#09101D"/>
<path d="M6.92969 3.96484H3.92969C3.72258 3.96484 3.55469 4.13274 3.55469 4.33984V7.33984C3.55469 7.54695 3.72258 7.71484 3.92969 7.71484H6.92969C7.13679 7.71484 7.30469 7.54695 7.30469 7.33984V4.33984C7.30469 4.13274 7.13679 3.96484 6.92969 3.96484Z" fill="#09101D"/>
<path fill-rule="evenodd" clip-rule="evenodd" d="M0.554688 2.46484C0.554688 1.63642 1.22626 0.964844 2.05469 0.964844H8.80469C9.63311 0.964844 10.3047 1.63642 10.3047 2.46484V9.21484C10.3047 10.0433 9.63311 10.7148 8.80469 10.7148H2.05469C1.22626 10.7148 0.554688 10.0433 0.554688 9.21484V2.46484ZM8.80469 2.46484H2.05469V9.21484H8.80469V2.46484Z" fill="#09101D"/>
<path d="M6.92969 15.2148H3.92969C3.72258 15.2148 3.55469 15.3827 3.55469 15.5898V18.5898C3.55469 18.797 3.72258 18.9648 3.92969 18.9648H6.92969C7.13679 18.9648 7.30469 18.797 7.30469 18.5898V15.5898C7.30469 15.3827 7.13679 15.2148 6.92969 15.2148Z" fill="#09101D"/>
<path fill-rule="evenodd" clip-rule="evenodd" d="M0.554688 13.7148C0.554688 12.8864 1.22626 12.2148 2.05469 12.2148H8.80469C9.63311 12.2148 10.3047 12.8864 10.3047 13.7148V20.4648C10.3047 21.2933 9.63311 21.9648 8.80469 21.9648H2.05469C1.22626 21.9648 0.554688 21.2933 0.554688 20.4648V13.7148ZM8.80469 13.7148H2.05469V20.4648H8.80469V13.7148Z" fill="#09101D"/>
</svg>
