<svg width="32" height="32" viewBox="0 0 32 32" fill="none" xmlns="http://www.w3.org/2000/svg">
<path fill-rule="evenodd" clip-rule="evenodd" d="M3 16C3 8.82272 8.82272 3 16 3C23.1773 3 29 8.82272 29 16C29 23.1773 23.1773 29 16 29C8.82272 29 3 23.1773 3 16ZM16 5C9.92728 5 5 9.92728 5 16C5 22.0727 9.92728 27 16 27C22.0727 27 27 22.0727 27 16C27 9.92728 22.0727 5 16 5Z" fill="#09101D"/>
<path fill-rule="evenodd" clip-rule="evenodd" d="M22.6432 10.2343C23.0661 10.5895 23.1209 11.2203 22.7657 11.6432L14.3657 21.6432C14.1795 21.8648 13.9065 21.9949 13.6171 21.9999C13.3277 22.0048 13.0503 21.8841 12.8567 21.669L9.25671 17.669C8.88725 17.2585 8.92053 16.6262 9.33104 16.2567C9.74155 15.8872 10.3738 15.9205 10.7433 16.331L13.574 19.4762L21.2343 10.3568C21.5895 9.93392 22.2203 9.87907 22.6432 10.2343Z" fill="#09101D"/>
</svg>
