<svg width="200" height="66" viewBox="0 0 200 66" fill="none" xmlns="http://www.w3.org/2000/svg">
<path d="M0 31.4567C3.1746 40.8878 19.5011 75.4683 31.746 31.4567C37.037 14.6904 51.7914 -8.54609 66.6667 31.6929M67.1202 32.5915C70.2948 42.0225 86.6213 76.6031 98.8662 32.5915C104.157 15.8252 118.912 -7.64757 133.787 32.5915M133.787 32.3546C136.961 41.7857 153.288 76.3663 165.533 32.3546C170.824 15.5884 185.125 -8.35018 200 31.8889M200 31.4567C203.175 40.8878 219.501 75.4683 231.746 31.4567C233.434 25.3889 251 -0.111141 266.667 31.6929M267.12 32.5915C270.5 42.3889 288.5 58.8889 298.866 32.5915C304.157 15.8252 318.912 -7.64757 333.787 32.5915M333.787 32.3546C336.961 41.7857 353.288 76.3663 365.533 32.3546C370.824 15.5884 392.5 11.8889 400 32.3546M399.5 30.8889C404 40.8889 420.5 65.3889 431.746 31.4567C437.037 14.6904 451.791 -8.54609 466.666 31.6929M467.12 32.5915C470.295 42.0225 486.621 76.6031 498.866 32.5915C504.157 15.8252 518.911 -7.64757 533.787 32.5915M533.787 32.3546C536.961 41.7857 553.288 76.3663 565.533 32.3546C570.824 15.5884 585.124 -8.35018 600 31.8889M600 31.4565C606 53.8887 618.5 91.8887 631.746 31.4565C636 5.38886 653.5 -20.1111 666.667 31.6928M667.12 32.5913C670.295 42.0224 686.621 76.6029 698.866 32.5913C704.157 15.825 718.912 -7.64772 733.787 32.5913M733.787 32.3545C736.961 41.7856 753.288 76.3661 765.533 32.3545C770.824 15.5882 785.125 -7.88455 800 32.3545" stroke="black" stroke-width="2" stroke-linecap="round"/>
</svg>
