<svg xmlns="http://www.w3.org/2000/svg" xmlns:xlink="http://www.w3.org/1999/xlink" viewBox="0 0 160.64 80.01" width="160.64" height="80.01"><defs><linearGradient id="a" x1="155.53" x2="4.03" y1="25.15" y2="26.65" gradientTransform="matrix(1 0 0 -1 -.04 82.04)" gradientUnits="userSpaceOnUse"><stop offset="0" stop-color="#36a510"/><stop offset=".14" stop-color="#40b107"/><stop offset=".38" stop-color="#80c52a"/><stop offset=".65" stop-color="#dbee00"/><stop offset=".82" stop-color="#c3811f"/><stop offset=".97" stop-color="#e13226"/></linearGradient><linearGradient id="b" x1="-106.43" x2="-257.93" y1="121.12" y2="122.62" gradientTransform="matrix(1 0 0 -1 262.06 168.42)" xlink:href="#a"/><linearGradient id="c" x1="-106.46" x2="-257.96" y1="125.99" y2="127.49" gradientTransform="matrix(1 0 0 -1 262.06 168.42)" xlink:href="#a"/><linearGradient id="d" x1="-106.37" x2="-257.87" y1="127.33" y2="128.83" gradientTransform="matrix(1 0 0 -1 262.06 168.42)" xlink:href="#a"/><linearGradient id="e" x1="-106.4" x2="-257.9" y1="127.28" y2="128.78" gradientTransform="matrix(1 0 0 -1 262.06 168.42)" xlink:href="#a"/><linearGradient id="f" x1="-106.43" x2="-257.93" y1="127.28" y2="128.78" gradientTransform="matrix(1 0 0 -1 262.06 168.42)" xlink:href="#a"/></defs><path fill="url(#a)" d="M32.07 44L16.76 31A79.06 79.06 0 0 0 .08 73.94a5.66 5.66 0 0 0 5.76 6H14a6.52 6.52 0 0 0 6.31-6A59.3 59.3 0 0 1 32.07 44z"/><path fill="url(#b)" d="M47.87 29.41L37.93 12a80.88 80.88 0 0 0-21.21 19A79.31 79.31 0 0 0 .09 74a5.67 5.67 0 0 0 5.78 6H14a6.48 6.48 0 0 0 6.29-6 60.06 60.06 0 0 1 27.58-44.59z"/><path fill="url(#c)" d="M60.29 2.49A80.66 80.66 0 0 0 16.64 31 79.53 79.53 0 0 0 3.16 57 78.55 78.55 0 0 0 0 74a5.66 5.66 0 0 0 5.77 6h8.13a6.5 6.5 0 0 0 6.3-6A59.16 59.16 0 0 1 32 44a60.43 60.43 0 0 1 34.76-22.5z"/><path fill="url(#d)" d="M80.37 20a60.92 60.92 0 0 0-13.53 1.5A59.9 59.9 0 0 0 20.29 74 6.48 6.48 0 0 1 14 80H5.87a5.67 5.67 0 0 1-5.78-6 79.31 79.31 0 0 1 16.63-43 81 81 0 0 1 83.65-28.51l-6.47 19A60.92 60.92 0 0 0 80.37 20z"/><path fill="url(#e)" d="M66.81 21.55a60.69 60.69 0 0 1 46 7.91 60.69 60.69 0 0 1 15.82 14.59l15.33-13a80.78 80.78 0 0 0-127.31 0A79.15 79.15 0 0 0 .07 74a5.67 5.67 0 0 0 5.78 6H14a6.5 6.5 0 0 0 6.3-6 58.88 58.88 0 0 1 2.3-11.47A59.66 59.66 0 0 1 32 44.05a61.39 61.39 0 0 1 5.89-6.7 60.5 60.5 0 0 1 28.9-15.8z"/><path fill="url(#f)" d="M66.78 21.55a60.65 60.65 0 0 1 46 7.91 60.27 60.27 0 0 1 9.94 7.89 61.39 61.39 0 0 1 5.89 6.7 60.7 60.7 0 0 1 6.12 10 60 60 0 0 1 3.33 8.5l19.36-5.5a80.44 80.44 0 0 0-57.11-54.51 81.57 81.57 0 0 0-40 0 80.66 80.66 0 0 0-43.65 28.51 79.63 79.63 0 0 0-13.48 26A78.66 78.66 0 0 0 0 74a5.66 5.66 0 0 0 5.77 6h8.13a6.51 6.51 0 0 0 6.3-6 58.88 58.88 0 0 1 2.3-11.47A59.66 59.66 0 0 1 32 44.05a60.43 60.43 0 0 1 34.79-22.5z"/><path fill="none" stroke="#09101d" stroke-width="2" d="M14 79H5.85a4.66 4.66 0 0 1-4.78-4.92 77.73 77.73 0 0 1 3.1-16.74 78.54 78.54 0 0 1 13.31-25.7 79.78 79.78 0 0 1 125.73 0 78.36 78.36 0 0 1 16.42 42.42 4.67 4.67 0 0 1-4.78 4.94h-8.13a5.49 5.49 0 0 1-5.3-5.09 59.84 59.84 0 0 0-2.34-11.65 60.67 60.67 0 0 0-9.61-18.81 62.53 62.53 0 0 0-6-6.81 61.61 61.61 0 0 0-92.27 6.81 60.44 60.44 0 0 0-11.93 30.44A5.49 5.49 0 0 1 14 79zm33.87-51.3l-9.44-14.82m74.49 15.42l9.63-15.12"/></svg>